<svg width="129" height="20" xmlns="http://www.w3.org/2000/svg" fill="none">

 <g>
  <title>Layer 1</title>
  <path id="svg_1" fill="#121629" d="m2.99745,12.0204c0,2.2041 0,4.0179 -0.1148,4.9822c-0.09183,0.6658 -0.20663,1.1709 -0.66581,1.2627c-0.20664,0.0459 -0.48215,0.0918 -0.68878,0.0918c-0.13775,0 -0.18367,0.0689 -0.18367,0.1378c0,0.1378 0.11479,0.1837 0.36734,0.1837c0.68878,0 2.13521,-0.0689 2.20409,-0.0689c0.11479,0 1.56122,0.0689 2.82398,0.0689c0.25255,0 0.36734,-0.0689 0.36734,-0.1837c0,-0.0689 -0.04592,-0.1378 -0.18367,-0.1378c-0.20663,0 -0.71174,-0.0459 -1.03316,-0.0918c-0.68878,-0.0918 -0.82653,-0.5969 -0.89541,-1.2627c-0.1148,-0.9643 -0.1148,-2.7781 -0.1148,-4.9822l0,-9.43622c0,-0.22959 0.04592,-0.3903 0.18368,-0.43622c0.20663,-0.09184 0.59693,-0.13776 0.98724,-0.13776c0.52806,0 1.92857,-0.09183 3.14541,1.14796c1.21687,1.2398 1.28567,2.77806 1.28567,3.53572c0,2.11224 -1.74485,3.74232 -3.9719,3.74232c-0.48214,0 -0.61989,0.023 -0.61989,0.2067c0,0.1148 0.13775,0.1607 0.25255,0.1607c0.11479,0.0229 0.36734,0.0229 0.48214,0.0229c3.2602,0 5.648,-2.20405 5.648,-5.46426c0,-1.21683 -0.6429,-2.24999 -1.148,-2.73214c-0.3673,-0.34439 -1.40051,-1.30867 -4.27041,-1.30867c-1.05612,0 -2.38775,0.06888 -2.89285,0.06888c-0.18368,0 -1.56123,-0.06888 -2.59439,-0.06888c-0.25255,0 -0.36735,0.04592 -0.36735,0.18367c0,0.09184 0.09184,0.13776 0.18367,0.13776c0.20664,0 0.59694,0.02296 0.78062,0.06887c0.75765,0.16072 0.94132,0.52807 0.98724,1.30868c0.04592,0.73469 0.04592,1.37755 0.04592,4.95918l0,4.04081z"/>
  <path id="svg_2" fill="#121629" d="m15.2503,16.1531c-0.4133,1.1479 -0.8725,2.0204 -1.9286,2.1581c-0.1836,0.023 -0.5051,0.0459 -0.6658,0.0459c-0.1148,0 -0.2066,0.046 -0.2066,0.1378c0,0.1378 0.1377,0.1837 0.4362,0.1837c1.0791,0 2.3418,-0.0689 2.5944,-0.0689c0.2525,0 1.2398,0.0689 1.7908,0.0689c0.2066,0 0.3444,-0.0459 0.3444,-0.1837c0,-0.0918 -0.0689,-0.1378 -0.2296,-0.1378l-0.2296,0c-0.3903,0 -0.8724,-0.2066 -0.8724,-0.6658c0,-0.4132 0.1148,-0.9643 0.3214,-1.5382l1.3775,-4.0638c0.046,-0.1148 0.1148,-0.1837 0.2296,-0.1837l4.9363,0c0.1148,0 0.1607,0.0459 0.2066,0.1378l2.1352,5.6479c0.1378,0.3674 0,0.574 -0.1378,0.6199c-0.0918,0.023 -0.1607,0.0689 -0.1607,0.1607c0,0.1378 0.2526,0.1378 0.6888,0.1608c1.5842,0.0459 3.2602,0.0459 3.6046,0.0459c0.2525,0 0.4592,-0.0459 0.4592,-0.1837c0,-0.1148 -0.0919,-0.1378 -0.2296,-0.1378c-0.2296,0 -0.574,-0.0229 -0.9184,-0.1377c-0.4821,-0.1378 -1.1479,-0.5051 -1.9745,-2.5485c-1.4005,-3.4898 -5.0051,-12.97192 -5.3495,-13.84437c-0.2755,-0.71173 -0.3673,-0.82653 -0.5051,-0.82653c-0.1377,0 -0.2296,0.13775 -0.5051,0.89541l-5.2117,14.25769zm3.2143,-5.074c-0.0689,0 -0.1148,-0.0459 -0.0689,-0.1607l2.0204,-6.19901c0.1148,-0.34439 0.2296,-0.34439 0.3444,0l2.1811,6.19901c0.023,0.0918 0.023,0.1607 -0.0918,0.1607l-4.3852,0z"/>
  <path id="svg_3" fill="#121629" d="m33.691,12.0204c0,2.2041 0,4.0179 -0.1148,4.9822c-0.0918,0.6658 -0.2066,1.1709 -0.6658,1.2627c-0.2066,0.0459 -0.4822,0.0918 -0.6888,0.0918c-0.1377,0 -0.1837,0.0689 -0.1837,0.1378c0,0.1378 0.1148,0.1837 0.3674,0.1837c0.6888,0 2.0204,-0.0689 2.2041,-0.0689c0.1836,0 1.5153,0.0689 2.6403,0.0689c0.2525,0 0.3673,-0.0689 0.3673,-0.1837c0,-0.0689 -0.0459,-0.1378 -0.1836,-0.1378c-0.2067,0 -0.574,-0.0459 -0.8955,-0.0918c-0.6887,-0.0918 -0.8265,-0.5969 -0.8954,-1.2627c-0.1148,-0.9643 -0.1148,-2.7781 -0.1148,-4.9822l0,-2.24999l0.1148,0c1.1021,1.35459 5.9694,6.61229 7.0026,7.46169c0.9872,0.7807 1.5612,1.2858 2.778,1.4006c0.5051,0.0459 0.9414,0.0459 1.5842,0.0459l1.1709,0c0.3904,0 0.5052,-0.0689 0.5052,-0.1837c0,-0.0918 -0.1378,-0.1378 -0.2985,-0.1378c-0.1607,0 -0.8265,-0.0459 -1.4235,-0.2984c-1.102,-0.4592 -1.4923,-0.8266 -3.4209,-2.6174c-0.9413,-0.8724 -5.7168,-5.80865 -6.3138,-6.47446c0.4822,-0.57398 4.4771,-4.47704 5.051,-5.02807c1.0332,-0.98724 1.5383,-1.56122 2.4796,-1.97448c0.4592,-0.20664 0.9414,-0.32143 1.2857,-0.32143c0.1837,0 0.2296,-0.04592 0.2296,-0.16072c0,-0.11479 -0.0918,-0.16071 -0.3443,-0.16071c-0.574,0 -2.0893,0.06888 -2.2041,0.06888c-0.5511,0 -1.2628,-0.06888 -1.722,-0.06888c-0.1607,0 -0.2755,0.04592 -0.2755,0.16071c0,0.09184 0.0919,0.13776 0.2067,0.18368c0.1836,0.06887 0.2984,0.20663 0.2984,0.48214c0,0.3903 -0.5969,0.98724 -1.2398,1.65306c-0.8265,0.89541 -4.9821,5.1199 -5.3724,5.55612l-0.0919,0l0,-1.37755c0,-3.58163 0,-4.22449 0.046,-4.95918c0.0459,-0.80357 0.2295,-1.19388 0.8494,-1.30868c0.2756,-0.04591 0.4133,-0.06887 0.574,-0.06887c0.0919,0 0.1837,-0.04592 0.1837,-0.13776c0,-0.13775 -0.1148,-0.18367 -0.3673,-0.18367c-0.6888,0 -2.0205,0.06888 -2.2271,0.06888c-0.1377,0 -1.4923,-0.06888 -2.5255,-0.06888c-0.2525,0 -0.3673,0.04592 -0.3673,0.18367c0,0.09184 0.0918,0.13776 0.1836,0.13776c0.2067,0 0.597,0.02296 0.7806,0.06887c0.7577,0.16072 0.9414,0.52807 0.9873,1.30868c0.0459,0.73469 0.0459,1.37755 0.0459,4.95918l0,4.04081z"/>
  <path id="svg_4" fill="#121629" d="m56.3047,2.30867l2.8929,0.04592c2.2041,0.04592 2.7551,0.57398 2.824,1.26276l0.0229,0.25255c0.023,0.32143 0.0689,0.3903 0.1837,0.3903c0.0918,0 0.1607,-0.09183 0.1607,-0.29846c0,-0.25256 0.0689,-1.83674 0.0689,-2.52552c0,-0.13775 0,-0.27551 -0.1148,-0.27551c-0.0918,0 -0.2985,0.06888 -0.6429,0.1148c-0.3673,0.06888 -0.8954,0.1148 -1.6301,0.1148l-8.6097,0c-0.2755,0 -1.1479,-0.04592 -1.8137,-0.1148c-0.6199,-0.04592 -0.8495,-0.27551 -1.0102,-0.27551c-0.0919,0 -0.1837,0.29847 -0.2296,0.43622c-0.046,0.18368 -0.5051,2.15817 -0.5051,2.38776c0,0.13776 0.0459,0.20663 0.1148,0.20663c0.0918,0 0.1607,-0.04592 0.2296,-0.22959c0.0688,-0.16071 0.1377,-0.32143 0.3903,-0.71174c0.3673,-0.55102 0.9183,-0.71173 2.3418,-0.73469l3.398,-0.04592l0,9.71173c0,2.2041 0,4.0179 -0.1148,4.9822c-0.0919,0.6658 -0.2067,1.1709 -0.6659,1.2627c-0.2066,0.0459 -0.4821,0.0918 -0.6887,0.0918c-0.1378,0 -0.1837,0.0689 -0.1837,0.1378c0,0.1378 0.1148,0.1837 0.3673,0.1837c0.6888,0 2.1352,-0.0689 2.25,-0.0689c0.1148,0 1.5613,0.0689 2.824,0.0689c0.2526,0 0.3674,-0.0689 0.3674,-0.1837c0,-0.0689 -0.046,-0.1378 -0.1837,-0.1378c-0.2066,0 -0.7117,-0.0459 -1.0332,-0.0918c-0.6887,-0.0918 -0.8265,-0.5969 -0.8954,-1.2627c-0.1148,-0.9643 -0.1148,-2.7781 -0.1148,-4.9822l0,-9.71173z"/>
  <path id="svg_5" fill="#121629" d="m64.4353,9.97704c0,4.13266 2.6174,9.02296 8.9082,9.02296c5.5332,0 9.1607,-4.2474 9.1607,-9.39031c0,-5.34949 -3.8571,-8.60969 -9.023,-8.60969c-6.3367,0 -9.0459,5.25765 -9.0459,8.97704zm2.1811,-0.64286c0,-5.02806 2.87,-7.55357 6.7041,-7.55357c3.6276,0 6.9796,2.96174 6.9796,8.47199c0,6.6811 -4.2704,7.875 -6.3367,7.875c-4.1327,0 -7.347,-3.4439 -7.347,-8.79342z"/>
  <path id="svg_6" fill="#121629" d="m89.7539,7.97959c0,-3.58163 0,-4.22449 0.0459,-4.95918c0.046,-0.80357 0.2296,-1.19388 0.8954,-1.30868c0.2756,-0.04591 0.597,-0.06887 0.7577,-0.06887c0.0918,0 0.1837,-0.04592 0.1837,-0.13776c0,-0.13775 -0.1148,-0.18367 -0.3674,-0.18367c-0.6887,0 -2.3648,0.06888 -2.4796,0.06888c-0.1148,0 -1.5612,-0.06888 -2.5943,-0.06888c-0.2526,0 -0.3674,0.04592 -0.3674,0.18367c0,0.09184 0.0918,0.13776 0.1837,0.13776c0.2066,0 0.5969,0.02296 0.7806,0.06887c0.7576,0.16072 0.9413,0.52807 0.9872,1.30868c0.046,0.73469 0.0459,1.37755 0.0459,4.95918l0,4.04081c0,2.2041 0.0001,4.0179 -0.1147,4.9822c-0.0919,0.6658 -0.2067,1.1709 -0.6659,1.2627c-0.2066,0.0459 -0.4821,0.0918 -0.6887,0.0918c-0.1378,0 -0.1837,0.0689 -0.1837,0.1378c0,0.1378 0.1148,0.1837 0.3673,0.1837c0.3444,0 0.8495,-0.023 1.3087,-0.0459c0.4592,0 0.8495,-0.023 0.9413,-0.023c0.6659,0 1.3776,0.023 2.3419,0.0689c0.9643,0.0229 2.1581,0.0688 3.8112,0.0688c1.2168,0 1.2857,-0.0918 1.4464,-0.6198c0.1837,-0.6659 0.3444,-2.0434 0.3444,-2.296c0,-0.2525 -0.0229,-0.3444 -0.1377,-0.3444c-0.1378,0 -0.1837,0.1148 -0.2067,0.2985c-0.0688,0.4362 -0.2984,1.0102 -0.5969,1.3776c-0.551,0.6658 -1.5612,0.6887 -2.7781,0.6887c-1.7908,0 -2.3877,-0.1607 -2.7551,-0.528c-0.4132,-0.4133 -0.5051,-1.8827 -0.5051,-5.2577l0,-4.08671z"/>
  <path id="svg_7" fill="#121629" d="m100.406,11.3316c0,3.3521 0.872,4.9592 1.997,6.0383c1.63,1.5383 3.949,1.6301 4.73,1.6301c1.354,0 3.076,-0.2296 4.729,-1.699c1.837,-1.6301 2.112,-4.3852 2.112,-6.8648l0,-2.45661c0,-3.58163 0,-4.22449 0.046,-4.95918c0.046,-0.80357 0.23,-1.17092 0.85,-1.30868c0.275,-0.04591 0.413,-0.06887 0.574,-0.06887c0.092,0 0.183,-0.04592 0.183,-0.13776c0,-0.13775 -0.114,-0.18367 -0.367,-0.18367c-0.689,0 -1.768,0.06888 -1.928,0.06888c-0.138,0 -1.401,-0.06888 -2.434,-0.06888c-0.253,0 -0.367,0.04592 -0.367,0.18367c0,0.09184 0.091,0.13776 0.183,0.13776c0.207,0 0.597,0.02296 0.781,0.06887c0.757,0.16072 0.941,0.52807 0.987,1.30868c0.046,0.73469 0.046,1.37755 0.046,4.95918l0,2.86991c0,2.3648 -0.276,4.3163 -1.332,5.625c-0.826,0.9872 -2.204,1.6531 -3.604,1.6531c-1.309,0 -2.342,-0.2067 -3.467,-1.2628c-0.987,-0.9413 -1.722,-2.3648 -1.722,-5.6709l0,-3.21431c0,-3.58163 0,-4.22449 0.046,-4.95918c0.046,-0.80357 0.23,-1.21684 0.849,-1.30868c0.276,-0.04591 0.414,-0.06887 0.574,-0.06887c0.092,0 0.184,-0.04592 0.184,-0.13776c0,-0.13775 -0.115,-0.18367 -0.367,-0.18367c-0.689,0 -2.067,0.06888 -2.273,0.06888c-0.207,0 -1.6074,-0.06888 -2.6406,-0.06888c-0.2525,0 -0.3673,0.04592 -0.3673,0.18367c0,0.09184 0.0918,0.13776 0.1837,0.13776c0.2066,0 0.5969,0.02296 0.7806,0.06887c0.7576,0.16072 0.9416,0.52807 0.9876,1.30868c0.046,0.73469 0.046,1.37755 0.046,4.95918l0,3.35201z"/>
  <path id="svg_8" fill="#121629" d="m122.861,19c1.24,0 2.48,-0.2755 3.467,-0.9643c1.584,-1.125 1.952,-2.8699 1.952,-3.8112c0,-1.8367 -0.643,-3.2602 -3.352,-5.39542l-0.643,-0.5051c-2.204,-1.72194 -2.801,-2.54847 -2.801,-3.85714c0,-1.67602 1.24,-2.66327 2.824,-2.66327c2.112,0 2.732,0.96429 2.87,1.21684c0.138,0.25255 0.275,0.87245 0.298,1.14796c0.023,0.18367 0.046,0.29847 0.184,0.29847c0.115,0 0.161,-0.16072 0.161,-0.52807c0,-1.56122 0.091,-2.31887 0.091,-2.43367c0,-0.11479 -0.045,-0.16071 -0.229,-0.16071c-0.184,0 -0.367,-0.02296 -0.804,-0.1148c-0.574,-0.13775 -1.24,-0.22959 -2.135,-0.22959c-2.916,0 -4.752,1.67602 -4.752,4.13265c0,1.56123 0.551,2.9847 2.984,4.98215l1.033,0.8495c1.975,1.6301 2.641,2.5485 2.641,4.1326c0,1.4694 -1.079,3.0536 -3.283,3.0536c-1.539,0 -3.054,-0.6428 -3.398,-2.3418c-0.069,-0.3215 -0.069,-0.6429 -0.069,-0.8495c0,-0.1837 -0.023,-0.2526 -0.161,-0.2526c-0.115,0 -0.161,0.1148 -0.184,0.3674c-0.023,0.3673 -0.114,1.2857 -0.114,2.4337c0,0.6199 0.022,0.7117 0.344,0.8724c0.941,0.4592 1.997,0.6199 3.076,0.6199z"/>
  <path id="svg_9" stroke-width="0.24" stroke="#121629" d="m2.99745,12.0204c0,2.2041 0,4.0179 -0.1148,4.9822c-0.09183,0.6658 -0.20663,1.1709 -0.66581,1.2627c-0.20664,0.0459 -0.48215,0.0918 -0.68878,0.0918c-0.13775,0 -0.18367,0.0689 -0.18367,0.1378c0,0.1378 0.11479,0.1837 0.36734,0.1837c0.68878,0 2.13521,-0.0689 2.20409,-0.0689c0.11479,0 1.56122,0.0689 2.82398,0.0689c0.25255,0 0.36734,-0.0689 0.36734,-0.1837c0,-0.0689 -0.04592,-0.1378 -0.18367,-0.1378c-0.20663,0 -0.71174,-0.0459 -1.03316,-0.0918c-0.68878,-0.0918 -0.82653,-0.5969 -0.89541,-1.2627c-0.1148,-0.9643 -0.1148,-2.7781 -0.1148,-4.9822l0,-9.43622c0,-0.22959 0.04592,-0.3903 0.18368,-0.43622c0.20663,-0.09184 0.59693,-0.13776 0.98724,-0.13776c0.52806,0 1.92857,-0.09183 3.14541,1.14796c1.21687,1.2398 1.28567,2.77806 1.28567,3.53572c0,2.11224 -1.74485,3.74232 -3.9719,3.74232c-0.48214,0 -0.61989,0.023 -0.61989,0.2067c0,0.1148 0.13775,0.1607 0.25255,0.1607c0.11479,0.0229 0.36734,0.0229 0.48214,0.0229c3.2602,0 5.648,-2.20405 5.648,-5.46426c0,-1.21683 -0.6429,-2.24999 -1.148,-2.73214c-0.3673,-0.34439 -1.40051,-1.30867 -4.27041,-1.30867c-1.05612,0 -2.38775,0.06888 -2.89285,0.06888c-0.18368,0 -1.56123,-0.06888 -2.59439,-0.06888c-0.25255,0 -0.36735,0.04592 -0.36735,0.18367c0,0.09184 0.09184,0.13776 0.18367,0.13776c0.20664,0 0.59694,0.02296 0.78062,0.06887c0.75765,0.16072 0.94132,0.52807 0.98724,1.30868c0.04592,0.73469 0.04592,1.37755 0.04592,4.95918l0,4.04081z"/>
  <path id="svg_10" stroke-width="0.24" stroke="#121629" d="m15.2503,16.1531c-0.4133,1.1479 -0.8725,2.0204 -1.9286,2.1581c-0.1836,0.023 -0.5051,0.0459 -0.6658,0.0459c-0.1148,0 -0.2066,0.046 -0.2066,0.1378c0,0.1378 0.1377,0.1837 0.4362,0.1837c1.0791,0 2.3418,-0.0689 2.5944,-0.0689c0.2525,0 1.2398,0.0689 1.7908,0.0689c0.2066,0 0.3444,-0.0459 0.3444,-0.1837c0,-0.0918 -0.0689,-0.1378 -0.2296,-0.1378l-0.2296,0c-0.3903,0 -0.8724,-0.2066 -0.8724,-0.6658c0,-0.4132 0.1148,-0.9643 0.3214,-1.5382l1.3775,-4.0638c0.046,-0.1148 0.1148,-0.1837 0.2296,-0.1837l4.9363,0c0.1148,0 0.1607,0.0459 0.2066,0.1378l2.1352,5.6479c0.1378,0.3674 0,0.574 -0.1378,0.6199c-0.0918,0.023 -0.1607,0.0689 -0.1607,0.1607c0,0.1378 0.2526,0.1378 0.6888,0.1608c1.5842,0.0459 3.2602,0.0459 3.6046,0.0459c0.2525,0 0.4592,-0.0459 0.4592,-0.1837c0,-0.1148 -0.0919,-0.1378 -0.2296,-0.1378c-0.2296,0 -0.574,-0.0229 -0.9184,-0.1377c-0.4821,-0.1378 -1.1479,-0.5051 -1.9745,-2.5485c-1.4005,-3.4898 -5.0051,-12.97192 -5.3495,-13.84437c-0.2755,-0.71173 -0.3673,-0.82653 -0.5051,-0.82653c-0.1377,0 -0.2296,0.13775 -0.5051,0.89541l-5.2117,14.25769zm3.2143,-5.074c-0.0689,0 -0.1148,-0.0459 -0.0689,-0.1607l2.0204,-6.19901c0.1148,-0.34439 0.2296,-0.34439 0.3444,0l2.1811,6.19901c0.023,0.0918 0.023,0.1607 -0.0918,0.1607l-4.3852,0z"/>
  <path id="svg_11" stroke-width="0.24" stroke="#121629" d="m33.691,12.0204c0,2.2041 0,4.0179 -0.1148,4.9822c-0.0918,0.6658 -0.2066,1.1709 -0.6658,1.2627c-0.2066,0.0459 -0.4822,0.0918 -0.6888,0.0918c-0.1377,0 -0.1837,0.0689 -0.1837,0.1378c0,0.1378 0.1148,0.1837 0.3674,0.1837c0.6888,0 2.0204,-0.0689 2.2041,-0.0689c0.1836,0 1.5153,0.0689 2.6403,0.0689c0.2525,0 0.3673,-0.0689 0.3673,-0.1837c0,-0.0689 -0.0459,-0.1378 -0.1836,-0.1378c-0.2067,0 -0.574,-0.0459 -0.8955,-0.0918c-0.6887,-0.0918 -0.8265,-0.5969 -0.8954,-1.2627c-0.1148,-0.9643 -0.1148,-2.7781 -0.1148,-4.9822l0,-2.24999l0.1148,0c1.1021,1.35459 5.9694,6.61229 7.0026,7.46169c0.9872,0.7807 1.5612,1.2858 2.778,1.4006c0.5051,0.0459 0.9414,0.0459 1.5842,0.0459l1.1709,0c0.3904,0 0.5052,-0.0689 0.5052,-0.1837c0,-0.0918 -0.1378,-0.1378 -0.2985,-0.1378c-0.1607,0 -0.8265,-0.0459 -1.4235,-0.2984c-1.102,-0.4592 -1.4923,-0.8266 -3.4209,-2.6174c-0.9413,-0.8724 -5.7168,-5.80865 -6.3138,-6.47446c0.4822,-0.57398 4.4771,-4.47704 5.051,-5.02807c1.0332,-0.98724 1.5383,-1.56122 2.4796,-1.97448c0.4592,-0.20664 0.9414,-0.32143 1.2857,-0.32143c0.1837,0 0.2296,-0.04592 0.2296,-0.16072c0,-0.11479 -0.0918,-0.16071 -0.3443,-0.16071c-0.574,0 -2.0893,0.06888 -2.2041,0.06888c-0.5511,0 -1.2628,-0.06888 -1.722,-0.06888c-0.1607,0 -0.2755,0.04592 -0.2755,0.16071c0,0.09184 0.0919,0.13776 0.2067,0.18368c0.1836,0.06887 0.2984,0.20663 0.2984,0.48214c0,0.3903 -0.5969,0.98724 -1.2398,1.65306c-0.8265,0.89541 -4.9821,5.1199 -5.3724,5.55612l-0.0919,0l0,-1.37755c0,-3.58163 0,-4.22449 0.046,-4.95918c0.0459,-0.80357 0.2295,-1.19388 0.8494,-1.30868c0.2756,-0.04591 0.4133,-0.06887 0.574,-0.06887c0.0919,0 0.1837,-0.04592 0.1837,-0.13776c0,-0.13775 -0.1148,-0.18367 -0.3673,-0.18367c-0.6888,0 -2.0205,0.06888 -2.2271,0.06888c-0.1377,0 -1.4923,-0.06888 -2.5255,-0.06888c-0.2525,0 -0.3673,0.04592 -0.3673,0.18367c0,0.09184 0.0918,0.13776 0.1836,0.13776c0.2067,0 0.597,0.02296 0.7806,0.06887c0.7577,0.16072 0.9414,0.52807 0.9873,1.30868c0.0459,0.73469 0.0459,1.37755 0.0459,4.95918l0,4.04081z"/>
  <path id="svg_12" stroke-width="0.24" stroke="#121629" d="m56.3047,2.30867l2.8929,0.04592c2.2041,0.04592 2.7551,0.57398 2.824,1.26276l0.0229,0.25255c0.023,0.32143 0.0689,0.3903 0.1837,0.3903c0.0918,0 0.1607,-0.09183 0.1607,-0.29846c0,-0.25256 0.0689,-1.83674 0.0689,-2.52552c0,-0.13775 0,-0.27551 -0.1148,-0.27551c-0.0918,0 -0.2985,0.06888 -0.6429,0.1148c-0.3673,0.06888 -0.8954,0.1148 -1.6301,0.1148l-8.6097,0c-0.2755,0 -1.1479,-0.04592 -1.8137,-0.1148c-0.6199,-0.04592 -0.8495,-0.27551 -1.0102,-0.27551c-0.0919,0 -0.1837,0.29847 -0.2296,0.43622c-0.046,0.18368 -0.5051,2.15817 -0.5051,2.38776c0,0.13776 0.0459,0.20663 0.1148,0.20663c0.0918,0 0.1607,-0.04592 0.2296,-0.22959c0.0688,-0.16071 0.1377,-0.32143 0.3903,-0.71174c0.3673,-0.55102 0.9183,-0.71173 2.3418,-0.73469l3.398,-0.04592l0,9.71173c0,2.2041 0,4.0179 -0.1148,4.9822c-0.0919,0.6658 -0.2067,1.1709 -0.6659,1.2627c-0.2066,0.0459 -0.4821,0.0918 -0.6887,0.0918c-0.1378,0 -0.1837,0.0689 -0.1837,0.1378c0,0.1378 0.1148,0.1837 0.3673,0.1837c0.6888,0 2.1352,-0.0689 2.25,-0.0689c0.1148,0 1.5613,0.0689 2.824,0.0689c0.2526,0 0.3674,-0.0689 0.3674,-0.1837c0,-0.0689 -0.046,-0.1378 -0.1837,-0.1378c-0.2066,0 -0.7117,-0.0459 -1.0332,-0.0918c-0.6887,-0.0918 -0.8265,-0.5969 -0.8954,-1.2627c-0.1148,-0.9643 -0.1148,-2.7781 -0.1148,-4.9822l0,-9.71173z"/>
  <path id="svg_13" stroke-width="0.24" stroke="#121629" d="m64.4353,9.97704c0,4.13266 2.6174,9.02296 8.9082,9.02296c5.5332,0 9.1607,-4.2474 9.1607,-9.39031c0,-5.34949 -3.8571,-8.60969 -9.023,-8.60969c-6.3367,0 -9.0459,5.25765 -9.0459,8.97704zm2.1811,-0.64286c0,-5.02806 2.87,-7.55357 6.7041,-7.55357c3.6276,0 6.9796,2.96174 6.9796,8.47199c0,6.6811 -4.2704,7.875 -6.3367,7.875c-4.1327,0 -7.347,-3.4439 -7.347,-8.79342z"/>
  <path id="svg_14" stroke-width="0.24" stroke="#121629" d="m89.7539,7.97959c0,-3.58163 0,-4.22449 0.0459,-4.95918c0.046,-0.80357 0.2296,-1.19388 0.8954,-1.30868c0.2756,-0.04591 0.597,-0.06887 0.7577,-0.06887c0.0918,0 0.1837,-0.04592 0.1837,-0.13776c0,-0.13775 -0.1148,-0.18367 -0.3674,-0.18367c-0.6887,0 -2.3648,0.06888 -2.4796,0.06888c-0.1148,0 -1.5612,-0.06888 -2.5943,-0.06888c-0.2526,0 -0.3674,0.04592 -0.3674,0.18367c0,0.09184 0.0918,0.13776 0.1837,0.13776c0.2066,0 0.5969,0.02296 0.7806,0.06887c0.7576,0.16072 0.9413,0.52807 0.9872,1.30868c0.046,0.73469 0.0459,1.37755 0.0459,4.95918l0,4.04081c0,2.2041 0.0001,4.0179 -0.1147,4.9822c-0.0919,0.6658 -0.2067,1.1709 -0.6659,1.2627c-0.2066,0.0459 -0.4821,0.0918 -0.6887,0.0918c-0.1378,0 -0.1837,0.0689 -0.1837,0.1378c0,0.1378 0.1148,0.1837 0.3673,0.1837c0.3444,0 0.8495,-0.023 1.3087,-0.0459c0.4592,0 0.8495,-0.023 0.9413,-0.023c0.6659,0 1.3776,0.023 2.3419,0.0689c0.9643,0.0229 2.1581,0.0688 3.8112,0.0688c1.2168,0 1.2857,-0.0918 1.4464,-0.6198c0.1837,-0.6659 0.3444,-2.0434 0.3444,-2.296c0,-0.2525 -0.0229,-0.3444 -0.1377,-0.3444c-0.1378,0 -0.1837,0.1148 -0.2067,0.2985c-0.0688,0.4362 -0.2984,1.0102 -0.5969,1.3776c-0.551,0.6658 -1.5612,0.6887 -2.7781,0.6887c-1.7908,0 -2.3877,-0.1607 -2.7551,-0.528c-0.4132,-0.4133 -0.5051,-1.8827 -0.5051,-5.2577l0,-4.08671z"/>
  <path id="svg_15" stroke-width="0.24" stroke="#121629" d="m100.406,11.3316c0,3.3521 0.872,4.9592 1.997,6.0383c1.63,1.5383 3.949,1.6301 4.73,1.6301c1.354,0 3.076,-0.2296 4.729,-1.699c1.837,-1.6301 2.112,-4.3852 2.112,-6.8648l0,-2.45661c0,-3.58163 0,-4.22449 0.046,-4.95918c0.046,-0.80357 0.23,-1.17092 0.85,-1.30868c0.275,-0.04591 0.413,-0.06887 0.574,-0.06887c0.092,0 0.183,-0.04592 0.183,-0.13776c0,-0.13775 -0.114,-0.18367 -0.367,-0.18367c-0.689,0 -1.768,0.06888 -1.928,0.06888c-0.138,0 -1.401,-0.06888 -2.434,-0.06888c-0.253,0 -0.367,0.04592 -0.367,0.18367c0,0.09184 0.091,0.13776 0.183,0.13776c0.207,0 0.597,0.02296 0.781,0.06887c0.757,0.16072 0.941,0.52807 0.987,1.30868c0.046,0.73469 0.046,1.37755 0.046,4.95918l0,2.86991c0,2.3648 -0.276,4.3163 -1.332,5.625c-0.826,0.9872 -2.204,1.6531 -3.604,1.6531c-1.309,0 -2.342,-0.2067 -3.467,-1.2628c-0.987,-0.9413 -1.722,-2.3648 -1.722,-5.6709l0,-3.21431c0,-3.58163 0,-4.22449 0.046,-4.95918c0.046,-0.80357 0.23,-1.21684 0.849,-1.30868c0.276,-0.04591 0.414,-0.06887 0.574,-0.06887c0.092,0 0.184,-0.04592 0.184,-0.13776c0,-0.13775 -0.115,-0.18367 -0.367,-0.18367c-0.689,0 -2.067,0.06888 -2.273,0.06888c-0.207,0 -1.6074,-0.06888 -2.6406,-0.06888c-0.2525,0 -0.3673,0.04592 -0.3673,0.18367c0,0.09184 0.0918,0.13776 0.1837,0.13776c0.2066,0 0.5969,0.02296 0.7806,0.06887c0.7576,0.16072 0.9416,0.52807 0.9876,1.30868c0.046,0.73469 0.046,1.37755 0.046,4.95918l0,3.35201z"/>
  <path id="svg_16" stroke-width="0.24" stroke="#121629" d="m122.861,19c1.24,0 2.48,-0.2755 3.467,-0.9643c1.584,-1.125 1.952,-2.8699 1.952,-3.8112c0,-1.8367 -0.643,-3.2602 -3.352,-5.39542l-0.643,-0.5051c-2.204,-1.72194 -2.801,-2.54847 -2.801,-3.85714c0,-1.67602 1.24,-2.66327 2.824,-2.66327c2.112,0 2.732,0.96429 2.87,1.21684c0.138,0.25255 0.275,0.87245 0.298,1.14796c0.023,0.18367 0.046,0.29847 0.184,0.29847c0.115,0 0.161,-0.16072 0.161,-0.52807c0,-1.56122 0.091,-2.31887 0.091,-2.43367c0,-0.11479 -0.045,-0.16071 -0.229,-0.16071c-0.184,0 -0.367,-0.02296 -0.804,-0.1148c-0.574,-0.13775 -1.24,-0.22959 -2.135,-0.22959c-2.916,0 -4.752,1.67602 -4.752,4.13265c0,1.56123 0.551,2.9847 2.984,4.98215l1.033,0.8495c1.975,1.6301 2.641,2.5485 2.641,4.1326c0,1.4694 -1.079,3.0536 -3.283,3.0536c-1.539,0 -3.054,-0.6428 -3.398,-2.3418c-0.069,-0.3215 -0.069,-0.6429 -0.069,-0.8495c0,-0.1837 -0.023,-0.2526 -0.161,-0.2526c-0.115,0 -0.161,0.1148 -0.184,0.3674c-0.023,0.3673 -0.114,1.2857 -0.114,2.4337c0,0.6199 0.022,0.7117 0.344,0.8724c0.941,0.4592 1.997,0.6199 3.076,0.6199z"/>
 </g>
</svg>